<svg xmlns="http://www.w3.org/2000/svg" width="57.695" height="52.563" enable-background="new 0 0 57.695 52.563" viewBox="0 0 57.695 52.563" id="cards">
  <path fill="#44444d" d="M38.478,49.127H19.22c-3.964,0-7.188-3.224-7.188-7.188V7.188C12.032,3.224,15.256,0,19.22,0h19.257c3.964,0,7.188,3.224,7.188,7.188v34.752C45.666,45.903,42.441,49.127,38.478,49.127z M19.22,3.691c-1.928,0-3.496,1.568-3.496,3.496v34.752c0,1.928,1.568,3.496,3.496,3.496h19.257c1.928,0,3.496-1.568,3.496-3.496V7.188c0-1.928-1.568-3.496-3.496-3.496H19.22z"></path>
  <path fill="#44444d" d="M43.638 52.563c-.476 0-.954-.047-1.431-.144-.999-.202-1.646-1.177-1.443-2.176.203-1 1.178-1.639 2.176-1.443.906.185 1.836-.001 2.616-.517.778-.518 1.309-1.301 1.491-2.207l6.886-34.083c.184-.907 0-1.836-.518-2.615s-1.302-1.31-2.209-1.492L47.56 7.148c-.999-.202-1.646-1.176-1.443-2.176s1.181-1.64 2.175-1.443l3.646.737c1.874.378 3.491 1.468 4.555 3.069 1.063 1.602 1.439 3.515 1.061 5.389l-6.886 34.081c-.378 1.874-1.468 3.491-3.069 4.554C46.402 52.152 45.033 52.563 43.638 52.563zM14.058 52.563c-1.396 0-2.765-.41-3.959-1.203-1.602-1.063-2.692-2.68-3.069-4.555L.144 12.724c-.379-1.873-.002-3.786 1.061-5.388s2.681-2.691 4.555-3.069l3.645-.737c.999-.195 1.974.444 2.175 1.443.202 1-.444 1.974-1.444 2.176L6.49 7.886C5.583 8.068 4.798 8.599 4.28 9.378c-.517.779-.701 1.708-.518 2.614l6.886 34.083c.183.907.712 1.69 1.491 2.208.78.516 1.708.701 2.616.517.997-.195 1.974.443 2.176 1.443.202.999-.444 1.974-1.443 2.176C15.012 52.515 14.534 52.563 14.058 52.563zM36.854 14.335c-1.02 0-1.847-.826-1.847-1.846V7.42c0-1.02.827-1.846 1.847-1.846S38.7 6.4 38.7 7.42v5.069C38.7 13.509 37.874 14.335 36.854 14.335z"></path>
  <path fill="#44444d" d="M39.389 11.8h-5.07c-1.02 0-1.847-.826-1.847-1.846s.827-1.846 1.847-1.846h5.07c1.02 0 1.846.826 1.846 1.846S40.408 11.8 39.389 11.8zM20.843 43.552c-1.02 0-1.846-.826-1.846-1.846v-5.068c0-1.02.827-1.846 1.846-1.846s1.846.826 1.846 1.846v5.068C22.689 42.726 21.863 43.552 20.843 43.552z"></path>
  <path fill="#44444d" d="M23.377,41.018h-5.068c-1.02,0-1.846-0.826-1.846-1.846s0.827-1.846,1.846-1.846h5.068c1.02,0,1.846,0.826,1.846,1.846S24.396,41.018,23.377,41.018z"></path>
  <g>
    <path fill="#44444d" d="M27.442 35.801c-.029 0-.058 0-.086-.002-1.019-.047-1.806-.91-1.759-1.929l.085-1.84c.047-1.019.918-1.835 1.929-1.759 1.019.047 1.806.91 1.759 1.929l-.085 1.84C29.239 35.029 28.422 35.801 27.442 35.801zM25.807 26.97c-1.459.38-3.254-.726-3.273-2.851-.038-4.752 5.66-3.816 5.069.516C27.417 25.999 26.67 26.744 25.807 26.97z"></path>
    <g>
      <path fill="#44444d" d="M30.256 35.801c-.98 0-1.797-.771-1.843-1.76l-.086-1.84c-.047-1.019.74-1.883 1.758-1.93 1.028-.072 1.883.739 1.931 1.758l.086 1.84c.047 1.019-.74 1.883-1.759 1.93C30.313 35.801 30.284 35.801 30.256 35.801zM30.094 24.635c-.591-4.332 5.108-5.268 5.068-.516-.018 2.125-1.814 3.23-3.273 2.851C31.027 26.744 30.281 25.999 30.094 24.635z"></path>
    </g>
  </g>
  <g>
    <path fill="#44444d" d="M33.029,35.678c-0.96,0-1.771-0.743-1.839-1.716c-0.088-1.248-0.123-2.274-0.027-3.538c0.073-0.963,0.875-1.706,1.841-1.706c1.081,0,1.848-0.288,2.343-0.88c0.838-1.002,1.083-3.029,0.653-5.423c-0.883-4.933-5.278-5.38-7.132-5.396c-1.883,0.017-6.288,0.465-7.173,5.397c-0.429,2.393-0.184,4.42,0.654,5.421c0.495,0.593,1.262,0.881,2.345,0.881c0.967,0,1.77,0.745,1.841,1.709c0.094,1.263,0.059,2.288-0.028,3.533c-0.071,1.017-0.947,1.786-1.97,1.714c-1.017-0.071-1.784-0.953-1.713-1.97c0.041-0.577,0.064-1.053,0.072-1.485c-1.678-0.377-2.741-1.25-3.378-2.012c-2.128-2.543-1.826-6.382-1.457-8.442c0.937-5.218,5.008-8.438,10.642-8.438c0.111,0,0.221,0,0.331,0c5.597,0,9.667,3.221,10.602,8.438c0.369,2.062,0.672,5.899-1.456,8.442c-0.638,0.762-1.7,1.635-3.378,2.013c0.008,0.431,0.031,0.906,0.072,1.482c0.071,1.018-0.695,1.899-1.712,1.972C33.117,35.677,33.073,35.678,33.029,35.678z"></path>
  </g>
  <g>
    <path fill="#44444d" d="M28.428,30.022c-0.369,0-0.742-0.11-1.066-0.34c-0.525-0.372-0.849-0.939-0.889-1.557c-0.066-1.018,0.609-1.642,0.898-1.907c0.039-0.034,0.005,0.008-0.018,0.04c0.672-0.927,2.197-0.967,2.919-0.088c0.362,0.335,1.014,0.954,0.949,1.955c-0.04,0.617-0.364,1.185-0.89,1.557c-0.448,0.317-0.988,0.407-1.485,0.291C28.71,30.006,28.57,30.022,28.428,30.022z"></path>
  </g>
</svg>
